# xmcd
#
# Track frame offsets: 
#        150
#        25327
#        45013
#        68274
#        92119
#        116644
#        139345
#        161617
#        185708
#        204806
#        228478
#        246285
#        262812
#
# Disc length: 3781 seconds
#
# Revision: 7
# Processed by: cddbd v1.5.2PL0 Copyright (c) Steve Scherf et al.
# Submitted via: ExactAudioCopy v0.99pb5
#
DISCID=a50ec30d
DTITLE=Curtis Mayfield - New World Order
DYEAR=1996
DGENRE=R&B
TTITLE0=New World Order
TTITLE1=Ms. Martha
TTITLE2=Back To Living Again
TTITLE3=No One Knows About A Good Thing (You Don't Have To Cry)
TTITLE4=Just A Little Bit Of Love
TTITLE5=We People Who Are Darker Than Blue
TTITLE6=I Believe In You
TTITLE7=Here But I'm Gone
TTITLE8=It Was Love That We Needed
TTITLE9=The Got Dang Song
TTITLE10=The Girl I Find Stays On My Mind
TTITLE11=Let's Not Forget
TTITLE12=Oh So Beautiful
EXTD=
EXTT0=
EXTT1=
EXTT2=
EXTT3=
EXTT4=
EXTT5=
EXTT6=
EXTT7=
EXTT8=
EXTT9=
EXTT10=
EXTT11=
EXTT12=
PLAYORDER=
